<svg width="24" height="24" viewBox="0 0 24 24" fill="none" xmlns="http://www.w3.org/2000/svg">
<path d="M23.121 9.06716L15.536 1.48116C14.5973 0.545147 13.3257 0.0195312 12 0.0195312C10.6744 0.0195312 9.40277 0.545147 8.46401 1.48116L0.879012 9.06716C0.599438 9.34494 0.377782 9.67546 0.226895 10.0395C0.0760072 10.4036 -0.0011104 10.794 1.20795e-05 11.1882V21.0052C1.20795e-05 21.8008 0.316083 22.5639 0.878692 23.1265C1.4413 23.6891 2.20436 24.0052 3.00001 24.0052H21C21.7957 24.0052 22.5587 23.6891 23.1213 23.1265C23.6839 22.5639 24 21.8008 24 21.0052V11.1882C24.0011 10.794 23.924 10.4036 23.7731 10.0395C23.6222 9.67546 23.4006 9.34494 23.121 9.06716ZM15 22.0052H9.00001V18.0712C9.00001 17.2755 9.31608 16.5124 9.87869 15.9498C10.4413 15.3872 11.2044 15.0712 12 15.0712C12.7957 15.0712 13.5587 15.3872 14.1213 15.9498C14.6839 16.5124 15 17.2755 15 18.0712V22.0052ZM22 21.0052C22 21.2704 21.8947 21.5247 21.7071 21.7123C21.5196 21.8998 21.2652 22.0052 21 22.0052H17V18.0712C17 16.7451 16.4732 15.4733 15.5355 14.5356C14.5979 13.5979 13.3261 13.0712 12 13.0712C10.6739 13.0712 9.40216 13.5979 8.46448 14.5356C7.5268 15.4733 7.00001 16.7451 7.00001 18.0712V22.0052H3.00001C2.7348 22.0052 2.48044 21.8998 2.29291 21.7123C2.10537 21.5247 2.00001 21.2704 2.00001 21.0052V11.1882C2.00094 10.9231 2.1062 10.6691 2.29301 10.4812L9.87801 2.89816C10.4417 2.33709 11.2047 2.0221 12 2.0221C12.7953 2.0221 13.5583 2.33709 14.122 2.89816L21.707 10.4842C21.8931 10.6714 21.9983 10.9242 22 11.1882V21.0052Z" fill="#7C8A97"/>
</svg>
